<?xml version="1.0" encoding="UTF-8"?>
<svg xmlns="http://www.w3.org/2000/svg" width="128" height="128" viewBox="0 0 32 32" fill="none" shape-rendering="crispEdges" style="image-rendering:pixelated">
  <title>Crouch 01</title>
  <desc>OutOfBounds secret agent pixel-vector asset on a transparent background.</desc>
  <metadata><![CDATA[{"asset":"crouch-01","kind":"crouch","logicalSize":[32,32],"baseline":31,"anchorX":16,"palette":["#fbb461","#e19c54","#b6713f","#585144","#48322d","#2d2b35","#192331","#181620","#111320","#0d101c","#090f1a","#080b17","#080913","#060913","#050813","#040812","#04060f","#030712","#030610","#03050d","#02050e","#01040e","#02030c","#010209","#ffbe70","#ff9846","#e66a2e","#a54222","#138e88","#0c6f73","#0a4d5e","#07313f","#687080","#4a5162","#343b4d","#222839"],"source":"codex-clipboard-6e30e349-46d9-4192-9d47-1c038a492b29.png","background":"transparent"}]]></metadata>
  <g id="crouch-01" shape-rendering="crispEdges">
    <rect x="4" y="13" width="1" height="1" fill="#030610"/>
    <rect x="5" y="13" width="2" height="1" fill="#090f1a"/>
    <rect x="7" y="13" width="1" height="2" fill="#04060f"/>
    <rect x="15" y="13" width="1" height="1" fill="#080913"/>
    <rect x="16" y="13" width="1" height="1" fill="#03050d"/>
    <rect x="17" y="13" width="1" height="1" fill="#02030c"/>
    <rect x="18" y="13" width="3" height="1" fill="#010209"/>
    <rect x="21" y="13" width="2" height="1" fill="#02030c"/>
    <rect x="23" y="13" width="1" height="1" fill="#040812"/>
    <rect x="4" y="14" width="1" height="1" fill="#02050e"/>
    <rect x="5" y="14" width="2" height="1" fill="#080b17"/>
    <rect x="15" y="14" width="1" height="1" fill="#080b17"/>
    <rect x="16" y="14" width="1" height="1" fill="#04060f"/>
    <rect x="17" y="14" width="1" height="1" fill="#040812"/>
    <rect x="18" y="14" width="1" height="1" fill="#050813"/>
    <rect x="19" y="14" width="2" height="1" fill="#04060f"/>
    <rect x="21" y="14" width="1" height="1" fill="#02030c"/>
    <rect x="22" y="14" width="1" height="1" fill="#02050e"/>
    <rect x="23" y="14" width="1" height="1" fill="#04060f"/>
    <rect x="4" y="15" width="1" height="1" fill="#01040e"/>
    <rect x="5" y="15" width="1" height="1" fill="#040812"/>
    <rect x="6" y="15" width="1" height="1" fill="#030610"/>
    <rect x="7" y="15" width="1" height="1" fill="#02030c"/>
    <rect x="13" y="15" width="1" height="1" fill="#04060f"/>
    <rect x="14" y="15" width="1" height="1" fill="#02030c"/>
    <rect x="15" y="15" width="1" height="1" fill="#060913"/>
    <rect x="16" y="15" width="2" height="1" fill="#090f1a"/>
    <rect x="18" y="15" width="1" height="1" fill="#0d101c"/>
    <rect x="19" y="15" width="3" height="1" fill="#111320"/>
    <rect x="22" y="15" width="1" height="1" fill="#181620"/>
    <rect x="23" y="15" width="1" height="1" fill="#090f1a"/>
    <rect x="24" y="15" width="1" height="1" fill="#040812"/>
    <rect x="25" y="15" width="1" height="2" fill="#080913"/>
    <rect x="4" y="16" width="4" height="1" fill="#010209"/>
    <rect x="13" y="16" width="1" height="1" fill="#03050d"/>
    <rect x="14" y="16" width="1" height="2" fill="#060913"/>
    <rect x="15" y="16" width="1" height="2" fill="#090f1a"/>
    <rect x="16" y="16" width="1" height="2" fill="#0d101c"/>
    <rect x="17" y="16" width="3" height="1" fill="#090f1a"/>
    <rect x="20" y="16" width="1" height="1" fill="#0d101c"/>
    <rect x="21" y="16" width="3" height="1" fill="#111320"/>
    <rect x="24" y="16" width="1" height="2" fill="#080b17"/>
    <rect x="11" y="17" width="1" height="1" fill="#02030c"/>
    <rect x="12" y="17" width="1" height="1" fill="#03050d"/>
    <rect x="13" y="17" width="1" height="1" fill="#02050e"/>
    <rect x="17" y="17" width="2" height="1" fill="#090f1a"/>
    <rect x="19" y="17" width="2" height="1" fill="#050813"/>
    <rect x="21" y="17" width="3" height="1" fill="#0d101c"/>
    <rect x="25" y="17" width="1" height="1" fill="#04060f"/>
    <rect x="9" y="18" width="1" height="1" fill="#03050d"/>
    <rect x="10" y="18" width="1" height="1" fill="#02030c"/>
    <rect x="11" y="18" width="1" height="1" fill="#01040e"/>
    <rect x="12" y="18" width="1" height="1" fill="#030610"/>
    <rect x="13" y="18" width="1" height="1" fill="#02030c"/>
    <rect x="14" y="18" width="1" height="1" fill="#030610"/>
    <rect x="15" y="18" width="1" height="1" fill="#060913"/>
    <rect x="16" y="18" width="1" height="1" fill="#080b17"/>
    <rect x="17" y="18" width="1" height="1" fill="#192331"/>
    <rect x="18" y="18" width="3" height="1" fill="#585144"/>
    <rect x="21" y="18" width="1" height="1" fill="#48322d"/>
    <rect x="22" y="18" width="1" height="1" fill="#050813"/>
    <rect x="23" y="18" width="1" height="2" fill="#060913"/>
    <rect x="24" y="18" width="1" height="1" fill="#02050e"/>
    <rect x="25" y="18" width="1" height="1" fill="#01040e"/>
    <rect x="9" y="19" width="1" height="1" fill="#02030c"/>
    <rect x="10" y="19" width="1" height="1" fill="#03050d"/>
    <rect x="11" y="19" width="2" height="1" fill="#080b17"/>
    <rect x="13" y="19" width="1" height="1" fill="#030712"/>
    <rect x="14" y="19" width="3" height="1" fill="#050813"/>
    <rect x="17" y="19" width="1" height="2" fill="#585144"/>
    <rect x="18" y="19" width="3" height="1" fill="#fbb461"/>
    <rect x="21" y="19" width="1" height="1" fill="#b6713f"/>
    <rect x="22" y="19" width="1" height="1" fill="#03050d"/>
    <rect x="24" y="19" width="1" height="2" fill="#050813"/>
    <rect x="25" y="19" width="1" height="1" fill="#080913"/>
    <rect x="7" y="20" width="1" height="1" fill="#02030c"/>
    <rect x="8" y="20" width="1" height="1" fill="#010209"/>
    <rect x="9" y="20" width="1" height="1" fill="#030610"/>
    <rect x="10" y="20" width="1" height="1" fill="#040812"/>
    <rect x="11" y="20" width="1" height="1" fill="#060913"/>
    <rect x="12" y="20" width="1" height="1" fill="#080b17"/>
    <rect x="13" y="20" width="1" height="2" fill="#030610"/>
    <rect x="14" y="20" width="1" height="3" fill="#585144"/>
    <rect x="15" y="20" width="1" height="1" fill="#e19c54"/>
    <rect x="16" y="20" width="1" height="1" fill="#48322d"/>
    <rect x="18" y="20" width="1" height="1" fill="#fbb461"/>
    <rect x="19" y="20" width="3" height="1" fill="#e19c54"/>
    <rect x="22" y="20" width="1" height="1" fill="#a54222"/>
    <rect x="23" y="20" width="1" height="1" fill="#030610"/>
    <rect x="7" y="21" width="1" height="2" fill="#010209"/>
    <rect x="8" y="21" width="1" height="1" fill="#02050e"/>
    <rect x="9" y="21" width="2" height="1" fill="#090f1a"/>
    <rect x="11" y="21" width="1" height="1" fill="#050813"/>
    <rect x="12" y="21" width="1" height="1" fill="#030712"/>
    <rect x="15" y="21" width="1" height="2" fill="#fbb461"/>
    <rect x="16" y="21" width="2" height="1" fill="#b6713f"/>
    <rect x="18" y="21" width="1" height="2" fill="#ffbe70"/>
    <rect x="19" y="21" width="1" height="1" fill="#01040e"/>
    <rect x="20" y="21" width="1" height="2" fill="#48322d"/>
    <rect x="21" y="21" width="1" height="1" fill="#fbb461"/>
    <rect x="22" y="21" width="1" height="1" fill="#e19c54"/>
    <rect x="23" y="21" width="2" height="1" fill="#080913"/>
    <rect x="4" y="22" width="1" height="1" fill="#080913"/>
    <rect x="5" y="22" width="1" height="1" fill="#010209"/>
    <rect x="6" y="22" width="1" height="1" fill="#04060f"/>
    <rect x="8" y="22" width="1" height="1" fill="#030610"/>
    <rect x="9" y="22" width="1" height="1" fill="#111320"/>
    <rect x="10" y="22" width="1" height="1" fill="#192331"/>
    <rect x="11" y="22" width="1" height="1" fill="#090f1a"/>
    <rect x="12" y="22" width="1" height="1" fill="#080b17"/>
    <rect x="13" y="22" width="1" height="1" fill="#030712"/>
    <rect x="16" y="22" width="2" height="1" fill="#e19c54"/>
    <rect x="19" y="22" width="1" height="1" fill="#050813"/>
    <rect x="21" y="22" width="2" height="1" fill="#fbb461"/>
    <rect x="23" y="22" width="1" height="1" fill="#2d2b35"/>
    <rect x="24" y="22" width="1" height="1" fill="#080913"/>
    <rect x="4" y="23" width="1" height="2" fill="#03050d"/>
    <rect x="5" y="23" width="2" height="1" fill="#01040e"/>
    <rect x="7" y="23" width="1" height="1" fill="#02030c"/>
    <rect x="8" y="23" width="1" height="1" fill="#01040e"/>
    <rect x="9" y="23" width="1" height="1" fill="#080b17"/>
    <rect x="10" y="23" width="2" height="1" fill="#090f1a"/>
    <rect x="12" y="23" width="2" height="1" fill="#080b17"/>
    <rect x="14" y="23" width="1" height="1" fill="#181620"/>
    <rect x="15" y="23" width="2" height="1" fill="#b6713f"/>
    <rect x="17" y="23" width="1" height="2" fill="#e19c54"/>
    <rect x="18" y="23" width="5" height="1" fill="#fbb461"/>
    <rect x="23" y="23" width="1" height="2" fill="#48322d"/>
    <rect x="24" y="23" width="1" height="1" fill="#080b17"/>
    <rect x="5" y="24" width="1" height="1" fill="#01040e"/>
    <rect x="6" y="24" width="1" height="1" fill="#030610"/>
    <rect x="7" y="24" width="1" height="1" fill="#030712"/>
    <rect x="8" y="24" width="2" height="1" fill="#030610"/>
    <rect x="10" y="24" width="1" height="1" fill="#02050e"/>
    <rect x="11" y="24" width="1" height="1" fill="#030712"/>
    <rect x="12" y="24" width="1" height="1" fill="#060913"/>
    <rect x="13" y="24" width="1" height="1" fill="#0d101c"/>
    <rect x="14" y="24" width="1" height="1" fill="#090f1a"/>
    <rect x="15" y="24" width="1" height="1" fill="#030712"/>
    <rect x="16" y="24" width="1" height="1" fill="#48322d"/>
    <rect x="18" y="24" width="1" height="1" fill="#fbb461"/>
    <rect x="19" y="24" width="2" height="1" fill="#ff9846"/>
    <rect x="21" y="24" width="1" height="1" fill="#e19c54"/>
    <rect x="22" y="24" width="1" height="1" fill="#b6713f"/>
    <rect x="4" y="25" width="1" height="1" fill="#04060f"/>
    <rect x="5" y="25" width="1" height="1" fill="#02030c"/>
    <rect x="6" y="25" width="1" height="1" fill="#01040e"/>
    <rect x="7" y="25" width="2" height="1" fill="#080b17"/>
    <rect x="9" y="25" width="1" height="1" fill="#04060f"/>
    <rect x="10" y="25" width="1" height="1" fill="#03050d"/>
    <rect x="11" y="25" width="1" height="1" fill="#050813"/>
    <rect x="12" y="25" width="3" height="1" fill="#111320"/>
    <rect x="15" y="25" width="1" height="1" fill="#040812"/>
    <rect x="16" y="25" width="1" height="1" fill="#02050e"/>
    <rect x="17" y="25" width="1" height="1" fill="#02030c"/>
    <rect x="18" y="25" width="1" height="1" fill="#010209"/>
    <rect x="19" y="25" width="1" height="1" fill="#04060f"/>
    <rect x="20" y="25" width="1" height="1" fill="#030712"/>
    <rect x="21" y="25" width="1" height="1" fill="#0d101c"/>
    <rect x="22" y="25" width="1" height="1" fill="#48322d"/>
    <rect x="4" y="26" width="1" height="1" fill="#03050d"/>
    <rect x="5" y="26" width="3" height="1" fill="#01040e"/>
    <rect x="8" y="26" width="1" height="1" fill="#2d2b35"/>
    <rect x="9" y="26" width="1" height="1" fill="#e19c54"/>
    <rect x="10" y="26" width="1" height="1" fill="#ffbe70"/>
    <rect x="11" y="26" width="1" height="1" fill="#48322d"/>
    <rect x="12" y="26" width="2" height="1" fill="#192331"/>
    <rect x="14" y="26" width="1" height="2" fill="#111320"/>
    <rect x="15" y="26" width="1" height="2" fill="#060913"/>
    <rect x="16" y="26" width="1" height="1" fill="#050813"/>
    <rect x="17" y="26" width="1" height="1" fill="#585144"/>
    <rect x="18" y="26" width="1" height="1" fill="#e19c54"/>
    <rect x="19" y="26" width="1" height="1" fill="#b6713f"/>
    <rect x="20" y="26" width="1" height="1" fill="#090f1a"/>
    <rect x="21" y="26" width="1" height="1" fill="#080913"/>
    <rect x="4" y="27" width="1" height="1" fill="#080b17"/>
    <rect x="5" y="27" width="1" height="1" fill="#04060f"/>
    <rect x="6" y="27" width="2" height="1" fill="#010209"/>
    <rect x="8" y="27" width="1" height="1" fill="#181620"/>
    <rect x="9" y="27" width="1" height="1" fill="#b6713f"/>
    <rect x="10" y="27" width="1" height="1" fill="#e19c54"/>
    <rect x="11" y="27" width="1" height="1" fill="#2d2b35"/>
    <rect x="12" y="27" width="1" height="1" fill="#111320"/>
    <rect x="13" y="27" width="1" height="1" fill="#192331"/>
    <rect x="16" y="27" width="1" height="1" fill="#030712"/>
    <rect x="17" y="27" width="1" height="1" fill="#48322d"/>
    <rect x="18" y="27" width="2" height="1" fill="#b6713f"/>
    <rect x="20" y="27" width="1" height="1" fill="#0d101c"/>
    <rect x="21" y="27" width="1" height="1" fill="#04060f"/>
    <rect x="22" y="27" width="1" height="1" fill="#080b17"/>
    <rect x="6" y="28" width="1" height="2" fill="#010209"/>
    <rect x="7" y="28" width="1" height="2" fill="#030610"/>
    <rect x="8" y="28" width="1" height="1" fill="#02050e"/>
    <rect x="9" y="28" width="1" height="1" fill="#01040e"/>
    <rect x="10" y="28" width="2" height="1" fill="#030712"/>
    <rect x="12" y="28" width="1" height="2" fill="#192331"/>
    <rect x="13" y="28" width="1" height="1" fill="#222839"/>
    <rect x="14" y="28" width="1" height="1" fill="#181620"/>
    <rect x="15" y="28" width="1" height="1" fill="#111320"/>
    <rect x="16" y="28" width="1" height="1" fill="#060913"/>
    <rect x="17" y="28" width="1" height="1" fill="#040812"/>
    <rect x="18" y="28" width="1" height="1" fill="#080b17"/>
    <rect x="19" y="28" width="1" height="1" fill="#181620"/>
    <rect x="20" y="28" width="1" height="1" fill="#01040e"/>
    <rect x="21" y="28" width="1" height="1" fill="#02030c"/>
    <rect x="22" y="28" width="1" height="1" fill="#04060f"/>
    <rect x="5" y="29" width="1" height="1" fill="#080913"/>
    <rect x="8" y="29" width="1" height="1" fill="#040812"/>
    <rect x="9" y="29" width="1" height="1" fill="#060913"/>
    <rect x="10" y="29" width="1" height="3" fill="#030610"/>
    <rect x="11" y="29" width="1" height="1" fill="#02050e"/>
    <rect x="13" y="29" width="2" height="1" fill="#222839"/>
    <rect x="15" y="29" width="1" height="2" fill="#192331"/>
    <rect x="16" y="29" width="1" height="2" fill="#111320"/>
    <rect x="17" y="29" width="1" height="1" fill="#080b17"/>
    <rect x="18" y="29" width="1" height="1" fill="#030712"/>
    <rect x="19" y="29" width="1" height="1" fill="#050813"/>
    <rect x="20" y="29" width="1" height="1" fill="#030610"/>
    <rect x="21" y="29" width="1" height="1" fill="#02050e"/>
    <rect x="22" y="29" width="1" height="1" fill="#03050d"/>
    <rect x="4" y="30" width="1" height="2" fill="#03050d"/>
    <rect x="5" y="30" width="1" height="2" fill="#02050e"/>
    <rect x="6" y="30" width="1" height="1" fill="#02030c"/>
    <rect x="7" y="30" width="2" height="1" fill="#030610"/>
    <rect x="9" y="30" width="1" height="1" fill="#050813"/>
    <rect x="11" y="30" width="1" height="1" fill="#04060f"/>
    <rect x="12" y="30" width="2" height="1" fill="#192331"/>
    <rect x="14" y="30" width="1" height="1" fill="#222839"/>
    <rect x="17" y="30" width="1" height="1" fill="#090f1a"/>
    <rect x="18" y="30" width="1" height="1" fill="#040812"/>
    <rect x="19" y="30" width="1" height="1" fill="#060913"/>
    <rect x="20" y="30" width="1" height="1" fill="#030712"/>
    <rect x="21" y="30" width="1" height="1" fill="#030610"/>
    <rect x="22" y="30" width="1" height="2" fill="#02050e"/>
    <rect x="23" y="30" width="1" height="1" fill="#060913"/>
    <rect x="6" y="31" width="1" height="1" fill="#040812"/>
    <rect x="7" y="31" width="2" height="1" fill="#02050e"/>
    <rect x="9" y="31" width="1" height="1" fill="#030712"/>
    <rect x="11" y="31" width="1" height="1" fill="#060913"/>
    <rect x="12" y="31" width="1" height="1" fill="#111320"/>
    <rect x="13" y="31" width="2" height="1" fill="#192331"/>
    <rect x="15" y="31" width="1" height="1" fill="#111320"/>
    <rect x="16" y="31" width="1" height="1" fill="#0d101c"/>
    <rect x="17" y="31" width="3" height="1" fill="#080b17"/>
    <rect x="20" y="31" width="1" height="1" fill="#050813"/>
    <rect x="21" y="31" width="1" height="1" fill="#030712"/>
    <rect x="23" y="31" width="1" height="1" fill="#03050d"/>
  </g>
</svg>
